<svg xmlns="http://www.w3.org/2000/svg" viewBox="-107.3 -224.0 357.2 382.0" width="357" height="382" role="img" aria-label="Isometric diagram of the outbound engine: domains, lists, copy, replies, calls">
  <polygon points="0.0,-208.0 -95.3,-153.0 -95.3,-141.0 0.0,-196.0" fill="#258859"/><polygon points="-95.3,-153.0 34.6,-78.0 34.6,-66.0 -95.3,-141.0" fill="#2fab71"/><polygon points="0.0,-208.0 129.9,-133.0 34.6,-78.0 -95.3,-153.0" fill="#3ddc91"/>
  <polygon points="0.0,-156.0 -95.3,-101.0 -95.3,-89.0 0.0,-144.0" fill="#5d8974"/><polygon points="-95.3,-101.0 34.6,-26.0 34.6,-14.0 -95.3,-89.0" fill="#75ac92"/><polygon points="0.0,-156.0 129.9,-81.0 34.6,-26.0 -95.3,-101.0" fill="#97ddbc"/>
  <polygon points="0.0,-104.0 -95.3,-49.0 -95.3,-37.0 0.0,-92.0" fill="#9e7f2c"/><polygon points="-95.3,-49.0 34.6,26.0 34.6,38.0 -95.3,-37.0" fill="#c69f38"/><polygon points="0.0,-104.0 129.9,-29.0 34.6,26.0 -95.3,-49.0" fill="#ffcd48"/>
  <polygon points="0.0,-52.0 -95.3,3.0 -95.3,15.0 0.0,-40.0" fill="#929997"/><polygon points="-95.3,3.0 34.6,78.0 34.6,90.0 -95.3,15.0" fill="#b8c0bf"/><polygon points="0.0,-52.0 129.9,23.0 34.6,78.0 -95.3,3.0" fill="#edf7f5"/>
  <polygon points="0.0,0.0 -95.3,55.0 -95.3,67.0 0.0,12.0" fill="#5d8974"/><polygon points="-95.3,55.0 34.6,130.0 34.6,142.0 -95.3,67.0" fill="#75ac92"/><polygon points="0.0,0.0 129.9,75.0 34.6,130.0 -95.3,55.0" fill="#97ddbc"/>
  <line x1="129.9" y1="75.0" x2="151.9" y2="75.0" stroke="#3ddc91" stroke-width="1.2" opacity="0.5"/><circle cx="129.9" cy="75.0" r="2.6" fill="#3ddc91"/><text x="159.9" y="79.0" fill="#ffffff" font-family="Inter,sans-serif" font-size="12" opacity="0.88">Domains</text>
  <line x1="129.9" y1="23.0" x2="151.9" y2="23.0" stroke="#3ddc91" stroke-width="1.2" opacity="0.5"/><circle cx="129.9" cy="23.0" r="2.6" fill="#3ddc91"/><text x="159.9" y="27.0" fill="#ffffff" font-family="Inter,sans-serif" font-size="12" opacity="0.88">Lists</text>
  <line x1="129.9" y1="-29.0" x2="151.9" y2="-29.0" stroke="#3ddc91" stroke-width="1.2" opacity="0.5"/><circle cx="129.9" cy="-29.0" r="2.6" fill="#3ddc91"/><text x="159.9" y="-25.0" fill="#ffffff" font-family="Inter,sans-serif" font-size="12" opacity="0.88">Copy</text>
  <line x1="129.9" y1="-81.0" x2="151.9" y2="-81.0" stroke="#3ddc91" stroke-width="1.2" opacity="0.5"/><circle cx="129.9" cy="-81.0" r="2.6" fill="#3ddc91"/><text x="159.9" y="-77.0" fill="#ffffff" font-family="Inter,sans-serif" font-size="12" opacity="0.88">Replies</text>
  <line x1="129.9" y1="-133.0" x2="151.9" y2="-133.0" stroke="#3ddc91" stroke-width="1.2" opacity="0.5"/><circle cx="129.9" cy="-133.0" r="2.6" fill="#3ddc91"/><text x="159.9" y="-129.0" fill="#ffffff" font-family="Inter,sans-serif" font-size="12" opacity="0.88">Calls</text>
</svg>
